<?xml version="1.0" standalone="no"?>
<!DOCTYPE svg PUBLIC "-//W3C//DTD SVG 20010904//EN"
 "http://www.w3.org/TR/2001/REC-SVG-20010904/DTD/svg10.dtd">
<svg version="1.0" xmlns="http://www.w3.org/2000/svg"
 width="1284.000000pt" height="1284.000000pt" viewBox="0 0 1284.000000 1284.000000"
 preserveAspectRatio="xMidYMid meet">
<metadata>
Created by potrace 1.14, written by Peter Selinger 2001-2017
</metadata>
<g transform="translate(0.000000,1284.000000) scale(0.100000,-0.100000)"
fill="#000000" stroke="none">
<path d="M6432 10918 c-267 -326 -281 -344 -262 -358 10 -8 1182 -971 2604
-2140 l2586 -2125 -22 -21 c-13 -12 -1143 -909 -2513 -1994 -1369 -1085 -2496
-1978 -2503 -1985 -10 -9 43 -81 264 -359 199 -250 281 -346 294 -344 20 3
5920 4680 5917 4689 -1 4 -1190 983 -2642 2175 -1452 1193 -2812 2311 -3023
2484 -211 173 -391 316 -401 318 -12 2 -101 -100 -299 -340z"/>
<path d="M4867 10703 c-64 -99 -3840 -5881 -4386 -6716 -255 -389 -460 -711
-457 -714 10 -10 750 -492 752 -490 1 1 327 502 726 1112 399 611 1498 2293
2442 3739 944 1446 1718 2633 1719 2638 2 8 -735 498 -748 498 -2 0 -24 -30
-48 -67z"/>
</g>
</svg>
